<svg xmlns="http://www.w3.org/2000/svg" width="50" height="50" fill="none" viewBox="0 0 50 50"><g clip-path="url(#clip0_14_13)"><path fill="#fff" d="M25 0C38.8071 0 50 11.1929 50 25C50 38.8071 38.8071 50 25 50C11.1929 50 0 38.8071 0 25C0 11.1929 11.1929 0 25 0Z"/><g clip-path="url(#clip1_14_13)"><path fill="#000" d="M32.4971 8L24.9943 19.4929H10L17.4971 8H32.4971Z" opacity=".45"/><path fill="#000" d="M24.9942 19.4929H39.9942L32.4971 8H17.4971L24.9942 19.4929Z" opacity=".6"/><path fill="#000" d="M17.4971 30.9809L24.9943 19.4929L17.4971 8L10 19.4929L17.4971 30.9809Z" opacity=".8"/><path fill="#000" d="M17.0175 45L24.5203 33.5071H39.5203L32.0175 45H17.0175Z" opacity=".45"/><path fill="#000" d="M25 33.2225H10L17.4971 44.7155H32.4971L25 33.2225Z" opacity=".6"/><path fill="#000" d="M32.4971 21.7346L25 33.2226L32.4971 44.7155L40 33.2226L32.4971 21.7346Z" opacity=".8"/></g></g><rect width="49" height="49" x=".5" y=".5" stroke="#000" rx="24.5"/><defs><clipPath id="clip0_14_13"><rect width="50" height="50" fill="#fff" rx="25"/></clipPath><clipPath id="clip1_14_13"><rect width="30" height="37" fill="#fff" transform="translate(10 7)"/></clipPath></defs></svg>