<svg xmlns="http://www.w3.org/2000/svg" xmlns:xlink="http://www.w3.org/1999/xlink" width="486" height="388" version="1.1" style="shape-rendering:geometricPrecision;text-rendering:geometricPrecision;image-rendering:optimizeQuality;fill-rule:evenodd;clip-rule:evenodd"><g><path style="opacity:1" fill="#280517" d="M -0.5,-0.5 C 161.5,-0.5 323.5,-0.5 485.5,-0.5C 485.5,128.833 485.5,258.167 485.5,387.5C 323.5,387.5 161.5,387.5 -0.5,387.5C -0.5,258.167 -0.5,128.833 -0.5,-0.5 Z"/></g><g><path style="opacity:1" fill="#5f394c" d="M 162.5,104.5 C 170.65,103.507 178.983,103.174 187.5,103.5C 187.737,104.791 187.404,105.791 186.5,106.5C 178.903,104.533 170.903,103.866 162.5,104.5 Z"/></g><g><path style="opacity:1" fill="#aa8196" d="M 324.5,106.5 C 323.711,106.217 323.044,105.717 322.5,105C 314.655,104.178 306.989,104.344 299.5,105.5C 298.957,105.44 298.624,105.107 298.5,104.5C 306.813,103.335 315.147,103.168 323.5,104C 324.252,104.671 324.586,105.504 324.5,106.5 Z"/></g><g><path style="opacity:1" fill="#bf95aa" d="M 162.5,104.5 C 170.903,103.866 178.903,104.533 186.5,106.5C 186.167,106.5 185.833,106.5 185.5,106.5C 178.018,105.508 170.352,105.175 162.5,105.5C 162.715,107.179 162.048,108.179 160.5,108.5C 160.66,106.847 161.326,105.514 162.5,104.5 Z"/></g><g><path style="opacity:1" fill="#c096ab" d="M 282.5,108.5 C 282.5,107.5 282.5,106.5 282.5,105.5C 260.817,105.261 239.151,105.594 217.5,106.5C 218.609,105.71 219.942,105.21 221.5,105C 242.164,104.5 262.831,104.333 283.5,104.5C 283.768,106.099 283.434,107.432 282.5,108.5 Z"/></g><g><path style="opacity:1" fill="#f5c9df" d="M 324.5,106.5 C 326.731,109.836 328.397,113.503 329.5,117.5C 329.723,121.162 330.723,124.495 332.5,127.5C 333.778,140.171 333.778,152.837 332.5,165.5C 331.073,174.783 328.073,183.45 323.5,191.5C 315.097,192.134 307.097,191.467 299.5,189.5C 308.071,179.465 312.738,167.798 313.5,154.5C 314.165,151.686 314.498,148.686 314.5,145.5C 314.684,140.893 314.017,136.56 312.5,132.5C 312.59,129.848 311.924,127.515 310.5,125.5C 309.925,122.088 308.592,119.088 306.5,116.5C 306.573,114.973 305.906,113.973 304.5,113.5C 303.345,110.525 301.678,107.858 299.5,105.5C 306.989,104.344 314.655,104.178 322.5,105C 323.044,105.717 323.711,106.217 324.5,106.5 Z"/></g><g><path style="opacity:1" fill="#f4c9de" d="M 185.5,106.5 C 181.671,111.338 178.671,116.672 176.5,122.5C 174.926,124.102 174.259,126.102 174.5,128.5C 171.308,139.61 170.641,150.943 172.5,162.5C 172.903,165.486 173.903,168.152 175.5,170.5C 177.528,177.557 180.861,183.89 185.5,189.5C 185.804,190.15 186.137,190.817 186.5,191.5C 178.108,192.801 169.775,192.801 161.5,191.5C 158.754,185.666 156.254,179.666 154,173.5C 152.681,167.894 151.847,162.227 151.5,156.5C 151.464,147.815 151.797,139.149 152.5,130.5C 154.31,127.855 155.31,124.855 155.5,121.5C 155.5,120.833 155.5,120.167 155.5,119.5C 157.834,117.824 158.834,115.491 158.5,112.5C 158.66,110.847 159.326,109.514 160.5,108.5C 162.048,108.179 162.715,107.179 162.5,105.5C 170.352,105.175 178.018,105.508 185.5,106.5 Z"/></g><g><path style="opacity:1" fill="#f2c6dc" d="M 282.5,108.5 C 282.296,110.685 281.63,112.685 280.5,114.5C 278.5,115.833 276.833,117.5 275.5,119.5C 273.076,120.03 270.743,120.864 268.5,122C 252.833,122.333 237.167,122.667 221.5,123C 218.334,125 215.668,127.5 213.5,130.5C 210.802,134.363 209.969,138.696 211,143.5C 212.747,148 215.247,152 218.5,155.5C 204.03,147.54 199.196,135.54 204,119.5C 206.054,115.018 209.221,111.684 213.5,109.5C 215.404,109.262 216.738,108.262 217.5,106.5C 239.151,105.594 260.817,105.261 282.5,105.5C 282.5,106.5 282.5,107.5 282.5,108.5 Z"/></g><g><path style="opacity:1" fill="#a37a8e" d="M 217.5,106.5 C 216.738,108.262 215.404,109.262 213.5,109.5C 214.262,107.738 215.596,106.738 217.5,106.5 Z"/></g><g><path style="opacity:1" fill="#ac8397" d="M 158.5,112.5 C 158.834,115.491 157.834,117.824 155.5,119.5C 155.935,116.843 156.935,114.509 158.5,112.5 Z"/></g><g><path style="opacity:1" fill="#7a5367" d="M 304.5,113.5 C 305.906,113.973 306.573,114.973 306.5,116.5C 305.094,116.027 304.427,115.027 304.5,113.5 Z"/></g><g><path style="opacity:1" fill="#5f3a4c" d="M 280.5,114.5 C 279.833,117.167 278.167,118.833 275.5,119.5C 276.833,117.5 278.5,115.833 280.5,114.5 Z"/></g><g><path style="opacity:1" fill="#90687c" d="M 329.5,117.5 C 331.277,120.505 332.277,123.838 332.5,127.5C 330.723,124.495 329.723,121.162 329.5,117.5 Z"/></g><g><path style="opacity:1" fill="#4d2839" d="M 306.5,116.5 C 308.592,119.088 309.925,122.088 310.5,125.5C 307.531,123.38 306.198,120.38 306.5,116.5 Z"/></g><g><path style="opacity:1" fill="#684154" d="M 176.5,122.5 C 176.741,124.898 176.074,126.898 174.5,128.5C 174.259,126.102 174.926,124.102 176.5,122.5 Z"/></g><g><path style="opacity:1" fill="#b38a9f" d="M 155.5,121.5 C 155.31,124.855 154.31,127.855 152.5,130.5C 152.528,127.084 153.528,124.084 155.5,121.5 Z"/></g><g><path style="opacity:1" fill="#7f576a" d="M 310.5,125.5 C 311.924,127.515 312.59,129.848 312.5,132.5C 311.076,130.485 310.41,128.152 310.5,125.5 Z"/></g><g><path style="opacity:1" fill="#e574ad" d="M 213.5,130.5 C 214.833,133.833 217.167,136.167 220.5,137.5C 220.918,138.222 221.584,138.722 222.5,139C 236.865,139.217 251.198,139.717 265.5,140.5C 265.5,140.833 265.5,141.167 265.5,141.5C 275.021,148.485 277.021,157.152 271.5,167.5C 269.934,162.112 266.267,158.945 260.5,158C 247.833,157.667 235.167,157.333 222.5,157C 220.942,156.79 219.609,156.29 218.5,155.5C 215.247,152 212.747,148 211,143.5C 209.969,138.696 210.802,134.363 213.5,130.5 Z"/></g><g><path style="opacity:1" fill="#43152c" d="M 220.5,137.5 C 234.809,138.264 249.142,138.764 263.5,139C 264.416,139.278 265.082,139.778 265.5,140.5C 251.198,139.717 236.865,139.217 222.5,139C 221.584,138.722 220.918,138.222 220.5,137.5 Z"/></g><g><path style="opacity:1" fill="#987084" d="M 152.5,130.5 C 151.797,139.149 151.464,147.815 151.5,156.5C 150.835,153.183 150.501,149.683 150.5,146C 150.326,140.579 150.993,135.413 152.5,130.5 Z"/></g><g><path style="opacity:1" fill="#7f586b" d="M 312.5,132.5 C 314.017,136.56 314.684,140.893 314.5,145.5C 314.498,148.686 314.165,151.686 313.5,154.5C 313.451,147.151 313.118,139.817 312.5,132.5 Z"/></g><g><path style="opacity:1" fill="#f5cadf" d="M 265.5,141.5 C 272.696,143.366 277.696,147.7 280.5,154.5C 282.155,160.346 282.822,166.346 282.5,172.5C 280.266,181.734 274.6,187.734 265.5,190.5C 244.86,191.454 224.193,191.787 203.5,191.5C 203.833,188.833 204.167,186.167 204.5,183.5C 206.569,180.427 209.236,178.094 212.5,176.5C 228.648,175.893 244.648,175.227 260.5,174.5C 264.988,173.424 268.655,171.091 271.5,167.5C 277.021,157.152 275.021,148.485 265.5,141.5 Z"/></g><g><path style="opacity:1" fill="#b48a9f" d="M 332.5,127.5 C 334.019,133.762 334.686,140.262 334.5,147C 334.711,153.414 334.045,159.581 332.5,165.5C 333.778,152.837 333.778,140.171 332.5,127.5 Z"/></g><g><path style="opacity:1" fill="#5f384b" d="M 172.5,162.5 C 174.397,164.698 175.397,167.364 175.5,170.5C 173.903,168.152 172.903,165.486 172.5,162.5 Z"/></g><g><path style="opacity:1" fill="#b58ca1" d="M 280.5,154.5 C 281.558,155.6 282.392,156.934 283,158.5C 283.815,163.352 283.648,168.019 282.5,172.5C 282.822,166.346 282.155,160.346 280.5,154.5 Z"/></g><g><path style="opacity:1" fill="#a1798e" d="M 260.5,174.5 C 244.648,175.227 228.648,175.893 212.5,176.5C 213.263,175.732 214.263,175.232 215.5,175C 230.496,174.5 245.496,174.333 260.5,174.5 Z"/></g><g><path style="opacity:1" fill="#d1a7bc" d="M 204.5,183.5 C 204.167,186.167 203.833,188.833 203.5,191.5C 224.193,191.787 244.86,191.454 265.5,190.5C 263.485,191.924 261.152,192.59 258.5,192.5C 239.833,192.5 221.167,192.5 202.5,192.5C 202.5,191.167 202.5,189.833 202.5,188.5C 202.402,186.447 203.069,184.78 204.5,183.5 Z"/></g><g><path style="opacity:1" fill="#795266" d="M 299.5,189.5 C 307.097,191.467 315.097,192.134 323.5,191.5C 315.35,192.493 307.017,192.826 298.5,192.5C 298.263,191.209 298.596,190.209 299.5,189.5 Z"/></g><g><path style="opacity:1" fill="#522b3d" d="M 185.5,189.5 C 187.176,190.183 187.843,191.517 187.5,193.5C 178.435,194.136 169.769,193.47 161.5,191.5C 169.775,192.801 178.108,192.801 186.5,191.5C 186.137,190.817 185.804,190.15 185.5,189.5 Z"/></g><g><path style="opacity:1" fill="#532d3f" d="M 202.5,188.5 C 202.5,189.833 202.5,191.167 202.5,192.5C 221.167,192.5 239.833,192.5 258.5,192.5C 239.674,193.497 220.674,193.83 201.5,193.5C 201.216,191.585 201.549,189.919 202.5,188.5 Z"/></g><g><path style="opacity:1" fill="#edc2d7" d="M 145.5,215.5 C 148.067,216.717 150.4,218.384 152.5,220.5C 151.25,222.154 149.916,223.821 148.5,225.5C 146.641,225.539 145.308,224.706 144.5,223C 142.866,222.506 141.199,222.34 139.5,222.5C 139.33,223.822 139.663,224.989 140.5,226C 142.743,227.136 145.076,227.97 147.5,228.5C 155.678,234.632 155.344,240.465 146.5,246C 143.833,246.667 141.167,246.667 138.5,246C 137.584,245.722 136.918,245.222 136.5,244.5C 133.138,242.118 132.805,239.451 135.5,236.5C 136.609,236.557 137.609,236.89 138.5,237.5C 140.696,239.545 143.03,239.878 145.5,238.5C 146.801,237.116 146.801,235.616 145.5,234C 142.161,232.704 138.827,231.537 135.5,230.5C 134.833,229.5 134.167,228.5 133.5,227.5C 132.857,223.567 133.857,220.234 136.5,217.5C 136.611,216.883 136.944,216.383 137.5,216C 140.146,215.503 142.813,215.336 145.5,215.5 Z"/></g><g><path style="opacity:1" fill="#593446" d="M 145.5,215.5 C 149.237,215.241 151.57,216.907 152.5,220.5C 150.4,218.384 148.067,216.717 145.5,215.5 Z"/></g><g><path style="opacity:1" fill="#b68ca1" d="M 161.5,216.5 C 161.5,225.833 161.5,235.167 161.5,244.5C 163.5,244.5 165.5,244.5 167.5,244.5C 167.5,244.833 167.5,245.167 167.5,245.5C 165.167,245.5 162.833,245.5 160.5,245.5C 160.173,235.652 160.506,225.986 161.5,216.5 Z"/></g><g><path style="opacity:1" fill="#f2c6dc" d="M 161.5,216.5 C 164.247,216.187 166.914,216.52 169.5,217.5C 170.63,218.622 171.297,219.956 171.5,221.5C 171.427,223.027 172.094,224.027 173.5,224.5C 174.167,224.5 174.5,224.833 174.5,225.5C 175.11,226.391 175.443,227.391 175.5,228.5C 175.811,229.478 176.478,230.145 177.5,230.5C 178.493,225.88 178.827,221.214 178.5,216.5C 180.5,216.5 182.5,216.5 184.5,216.5C 184.5,225.833 184.5,235.167 184.5,244.5C 182.167,244.5 179.833,244.5 177.5,244.5C 175.668,240.164 173.335,236.164 170.5,232.5C 170.585,231.005 169.919,230.005 168.5,229.5C 167.506,234.456 167.173,239.456 167.5,244.5C 165.5,244.5 163.5,244.5 161.5,244.5C 161.5,235.167 161.5,225.833 161.5,216.5 Z"/></g><g><path style="opacity:1" fill="#553143" d="M 177.5,216.5 C 178.089,220.971 177.423,224.971 175.5,228.5C 175.443,227.391 175.11,226.391 174.5,225.5C 176.11,222.797 177.11,219.797 177.5,216.5 Z"/></g><g><path style="opacity:1" fill="#b0879c" d="M 177.5,216.5 C 177.833,216.5 178.167,216.5 178.5,216.5C 178.827,221.214 178.493,225.88 177.5,230.5C 176.478,230.145 175.811,229.478 175.5,228.5C 177.423,224.971 178.089,220.971 177.5,216.5 Z"/></g><g><path style="opacity:1" fill="#8a6276" d="M 184.5,216.5 C 185.494,225.986 185.827,235.652 185.5,245.5C 182.615,245.806 179.948,245.473 177.5,244.5C 179.833,244.5 182.167,244.5 184.5,244.5C 184.5,235.167 184.5,225.833 184.5,216.5 Z"/></g><g><path style="opacity:1" fill="#f0c4da" d="M 199.5,216.5 C 202.5,216.5 205.5,216.5 208.5,216.5C 210.595,224.784 213.261,232.784 216.5,240.5C 216.5,241.833 216.5,243.167 216.5,244.5C 213.579,244.717 210.913,244.051 208.5,242.5C 207.486,241.235 205.986,240.569 204,240.5C 200.814,240.237 198.981,241.57 198.5,244.5C 196.167,244.5 193.833,244.5 191.5,244.5C 192.707,240.214 193.707,235.88 194.5,231.5C 195.11,230.609 195.443,229.609 195.5,228.5C 197.074,226.898 197.741,224.898 197.5,222.5C 199.074,220.898 199.741,218.898 199.5,216.5 Z"/></g><g><path style="opacity:1" fill="#ae859a" d="M 224.5,216.5 C 224.5,225.833 224.5,235.167 224.5,244.5C 226.5,244.5 228.5,244.5 230.5,244.5C 230.5,241.5 230.5,238.5 230.5,235.5C 233.167,235.5 235.833,235.5 238.5,235.5C 236.393,236.468 234.059,236.802 231.5,236.5C 231.5,239.5 231.5,242.5 231.5,245.5C 228.833,245.5 226.167,245.5 223.5,245.5C 223.173,235.652 223.506,225.986 224.5,216.5 Z"/></g><g><path style="opacity:1" fill="#f1c6db" d="M 224.5,216.5 C 229.179,216.334 233.845,216.501 238.5,217C 244.995,218.846 247.162,223.012 245,229.5C 243.594,232.409 241.428,234.409 238.5,235.5C 235.833,235.5 233.167,235.5 230.5,235.5C 230.5,238.5 230.5,241.5 230.5,244.5C 228.5,244.5 226.5,244.5 224.5,244.5C 224.5,235.167 224.5,225.833 224.5,216.5 Z"/></g><g><path style="opacity:1" fill="#f3c7dd" d="M 272.5,222.5 C 270.167,222.5 267.833,222.5 265.5,222.5C 264.508,229.648 264.175,236.981 264.5,244.5C 262.5,244.5 260.5,244.5 258.5,244.5C 258.825,236.981 258.492,229.648 257.5,222.5C 255.167,222.5 252.833,222.5 250.5,222.5C 250.5,220.5 250.5,218.5 250.5,216.5C 257.833,216.5 265.167,216.5 272.5,216.5C 272.5,218.5 272.5,220.5 272.5,222.5 Z"/></g><g><path style="opacity:1" fill="#ad8599" d="M 279.5,216.5 C 279.5,225.833 279.5,235.167 279.5,244.5C 281.5,244.5 283.5,244.5 285.5,244.5C 285.185,240.629 285.518,236.962 286.5,233.5C 286.5,233.833 286.5,234.167 286.5,234.5C 286.5,238.167 286.5,241.833 286.5,245.5C 283.833,245.5 281.167,245.5 278.5,245.5C 278.173,235.652 278.506,225.986 279.5,216.5 Z"/></g><g><path style="opacity:1" fill="#f3c7dd" d="M 279.5,216.5 C 281.5,216.5 283.5,216.5 285.5,216.5C 285.5,220.167 285.5,223.833 285.5,227.5C 288.833,227.5 292.167,227.5 295.5,227.5C 295.5,223.833 295.5,220.167 295.5,216.5C 297.833,216.5 300.167,216.5 302.5,216.5C 302.5,225.833 302.5,235.167 302.5,244.5C 300.5,244.5 298.5,244.5 296.5,244.5C 296.815,240.629 296.482,236.962 295.5,233.5C 292.5,233.5 289.5,233.5 286.5,233.5C 285.518,236.962 285.185,240.629 285.5,244.5C 283.5,244.5 281.5,244.5 279.5,244.5C 279.5,235.167 279.5,225.833 279.5,216.5 Z"/></g><g><path style="opacity:1" fill="#401b2e" d="M 295.5,216.5 C 298.287,215.523 301.287,215.19 304.5,215.5C 304.827,225.681 304.494,235.681 303.5,245.5C 303.827,235.652 303.494,225.986 302.5,216.5C 300.167,216.5 297.833,216.5 295.5,216.5 Z"/></g><g><path style="opacity:1" fill="#c99fb4" d="M 313.5,216.5 C 313.5,225.833 313.5,235.167 313.5,244.5C 315.167,244.5 316.833,244.5 318.5,244.5C 318.5,235.167 318.5,225.833 318.5,216.5C 319.494,225.986 319.827,235.652 319.5,245.5C 317.167,245.5 314.833,245.5 312.5,245.5C 312.173,235.652 312.506,225.986 313.5,216.5 Z"/></g><g><path style="opacity:1" fill="#f6cae0" d="M 313.5,216.5 C 315.167,216.5 316.833,216.5 318.5,216.5C 318.5,225.833 318.5,235.167 318.5,244.5C 316.833,244.5 315.167,244.5 313.5,244.5C 313.5,235.167 313.5,225.833 313.5,216.5 Z"/></g><g><path style="opacity:1" fill="#a47b90" d="M 329.5,216.5 C 329.5,225.833 329.5,235.167 329.5,244.5C 331.5,244.5 333.5,244.5 335.5,244.5C 335.173,239.456 335.506,234.456 336.5,229.5C 337.107,229.624 337.44,229.957 337.5,230.5C 336.513,235.305 336.179,240.305 336.5,245.5C 333.833,245.5 331.167,245.5 328.5,245.5C 328.173,235.652 328.506,225.986 329.5,216.5 Z"/></g><g><path style="opacity:1" fill="#f1c6db" d="M 329.5,216.5 C 332.247,216.187 334.914,216.52 337.5,217.5C 339.193,220.184 340.86,222.851 342.5,225.5C 343.11,226.391 343.443,227.391 343.5,228.5C 343.821,230.048 344.821,230.715 346.5,230.5C 346.5,225.833 346.5,221.167 346.5,216.5C 348.5,216.5 350.5,216.5 352.5,216.5C 352.5,225.833 352.5,235.167 352.5,244.5C 349.487,244.893 346.82,244.226 344.5,242.5C 343.416,239.996 342.083,237.663 340.5,235.5C 339.89,233.566 338.89,231.899 337.5,230.5C 337.44,229.957 337.107,229.624 336.5,229.5C 335.506,234.456 335.173,239.456 335.5,244.5C 333.5,244.5 331.5,244.5 329.5,244.5C 329.5,235.167 329.5,225.833 329.5,216.5 Z"/></g><g><path style="opacity:1" fill="#4e283b" d="M 345.5,216.5 C 345.666,220.846 345.499,225.179 345,229.5C 344.617,228.944 344.117,228.611 343.5,228.5C 343.443,227.391 343.11,226.391 342.5,225.5C 344.11,222.797 345.11,219.797 345.5,216.5 Z"/></g><g><path style="opacity:1" fill="#a77e93" d="M 345.5,216.5 C 345.833,216.5 346.167,216.5 346.5,216.5C 346.5,221.167 346.5,225.833 346.5,230.5C 344.821,230.715 343.821,230.048 343.5,228.5C 344.117,228.611 344.617,228.944 345,229.5C 345.499,225.179 345.666,220.846 345.5,216.5 Z"/></g><g><path style="opacity:1" fill="#9e7589" d="M 352.5,216.5 C 353.494,225.986 353.827,235.652 353.5,245.5C 350.813,245.664 348.146,245.497 345.5,245C 344.748,244.329 344.414,243.496 344.5,242.5C 346.82,244.226 349.487,244.893 352.5,244.5C 352.5,235.167 352.5,225.833 352.5,216.5 Z"/></g><g><path style="opacity:1" fill="#845d70" d="M 199.5,216.5 C 199.741,218.898 199.074,220.898 197.5,222.5C 197.595,220.214 198.262,218.214 199.5,216.5 Z"/></g><g><path style="opacity:1" fill="#946c80" d="M 171.5,221.5 C 172.906,221.973 173.573,222.973 173.5,224.5C 172.094,224.027 171.427,223.027 171.5,221.5 Z"/></g><g><path style="opacity:1" fill="#90687c" d="M 236.5,223.5 C 234.833,223.5 233.167,223.5 231.5,223.5C 231.5,225.5 231.5,227.5 231.5,229.5C 233.167,229.5 234.833,229.5 236.5,229.5C 234.735,230.461 232.735,230.795 230.5,230.5C 230.5,227.833 230.5,225.167 230.5,222.5C 232.735,222.205 234.735,222.539 236.5,223.5 Z"/></g><g><path style="opacity:1" fill="#320f20" d="M 236.5,223.5 C 237.742,225.389 237.742,227.389 236.5,229.5C 234.833,229.5 233.167,229.5 231.5,229.5C 231.5,227.5 231.5,225.5 231.5,223.5C 233.167,223.5 234.833,223.5 236.5,223.5 Z"/></g><g><path style="opacity:1" fill="#a57c90" d="M 257.5,222.5 C 258.492,229.648 258.825,236.981 258.5,244.5C 260.5,244.5 262.5,244.5 264.5,244.5C 264.175,236.981 264.508,229.648 265.5,222.5C 265.5,230.167 265.5,237.833 265.5,245.5C 262.833,245.5 260.167,245.5 257.5,245.5C 257.5,237.833 257.5,230.167 257.5,222.5 Z"/></g><g><path style="opacity:1" fill="#4f2a3d" d="M 265.5,222.5 C 267.833,222.5 270.167,222.5 272.5,222.5C 270.735,223.461 268.735,223.795 266.5,223.5C 266.825,231.019 266.492,238.352 265.5,245.5C 265.5,237.833 265.5,230.167 265.5,222.5 Z"/></g><g><path style="opacity:1" fill="#a57c91" d="M 136.5,217.5 C 133.857,220.234 132.857,223.567 133.5,227.5C 132.366,225.034 132.199,222.367 133,219.5C 133.816,218.177 134.983,217.511 136.5,217.5 Z"/></g><g><path style="opacity:1" fill="#472234" d="M 148.5,225.5 C 147.89,226.391 147.557,227.391 147.5,228.5C 145.076,227.97 142.743,227.136 140.5,226C 139.663,224.989 139.33,223.822 139.5,222.5C 141.199,222.34 142.866,222.506 144.5,223C 145.308,224.706 146.641,225.539 148.5,225.5 Z"/></g><g><path style="opacity:1" fill="#825b6e" d="M 197.5,222.5 C 197.741,224.898 197.074,226.898 195.5,228.5C 195.595,226.214 196.262,224.214 197.5,222.5 Z"/></g><g><path style="opacity:1" fill="#714a5e" d="M 285.5,216.5 C 286.479,219.625 286.813,222.958 286.5,226.5C 289.167,226.5 291.833,226.5 294.5,226.5C 294.187,222.958 294.521,219.625 295.5,216.5C 295.5,220.167 295.5,223.833 295.5,227.5C 292.167,227.5 288.833,227.5 285.5,227.5C 285.5,223.833 285.5,220.167 285.5,216.5 Z"/></g><g><path style="opacity:1" fill="#865e72" d="M 170.5,232.5 C 169.883,232.389 169.383,232.056 169,231.5C 168.826,236.351 168.326,241.018 167.5,245.5C 167.5,245.167 167.5,244.833 167.5,244.5C 167.173,239.456 167.506,234.456 168.5,229.5C 169.919,230.005 170.585,231.005 170.5,232.5 Z"/></g><g><path style="opacity:1" fill="#bb91a6" d="M 135.5,230.5 C 138.827,231.537 142.161,232.704 145.5,234C 146.801,235.616 146.801,237.116 145.5,238.5C 145.67,237.178 145.337,236.011 144.5,235C 140.965,234.337 137.965,232.837 135.5,230.5 Z"/></g><g><path style="opacity:1" fill="#744c60" d="M 203.5,227.5 C 205.536,229.206 206.536,231.539 206.5,234.5C 204.833,234.5 203.167,234.5 201.5,234.5C 201.767,232.035 202.434,229.701 203.5,227.5 Z"/></g><g><path style="opacity:1" fill="#896175" d="M 194.5,231.5 C 193.707,235.88 192.707,240.214 191.5,244.5C 193.833,244.5 196.167,244.5 198.5,244.5C 196.052,245.473 193.385,245.806 190.5,245.5C 190.85,240.46 192.184,235.794 194.5,231.5 Z"/></g><g><path style="opacity:1" fill="#603a4c" d="M 286.5,234.5 C 286.5,234.167 286.5,233.833 286.5,233.5C 289.5,233.5 292.5,233.5 295.5,233.5C 295.5,237.5 295.5,241.5 295.5,245.5C 294.518,242.038 294.185,238.371 294.5,234.5C 291.833,234.5 289.167,234.5 286.5,234.5 Z"/></g><g><path style="opacity:1" fill="#a57c91" d="M 302.5,216.5 C 303.494,225.986 303.827,235.652 303.5,245.5C 300.833,245.5 298.167,245.5 295.5,245.5C 295.5,241.5 295.5,237.5 295.5,233.5C 296.482,236.962 296.815,240.629 296.5,244.5C 298.5,244.5 300.5,244.5 302.5,244.5C 302.5,235.167 302.5,225.833 302.5,216.5 Z"/></g><g><path style="opacity:1" fill="#8d6579" d="M 135.5,236.5 C 136.947,235.115 137.947,235.448 138.5,237.5C 137.609,236.89 136.609,236.557 135.5,236.5 Z"/></g><g><path style="opacity:1" fill="#b78da2" d="M 135.5,236.5 C 132.805,239.451 133.138,242.118 136.5,244.5C 134.066,243.901 132.399,242.401 131.5,240C 132.072,237.926 133.405,236.76 135.5,236.5 Z"/></g><g><path style="opacity:1" fill="#4d273a" d="M 337.5,230.5 C 338.89,231.899 339.89,233.566 340.5,235.5C 339.542,235.047 338.708,234.381 338,233.5C 337.824,237.688 337.324,241.688 336.5,245.5C 336.179,240.305 336.513,235.305 337.5,230.5 Z"/></g><g><path style="opacity:1" fill="#603a4c" d="M 208.5,242.5 C 205.946,241.612 203.279,241.279 200.5,241.5C 200.715,243.179 200.048,244.179 198.5,244.5C 198.981,241.57 200.814,240.237 204,240.5C 205.986,240.569 207.486,241.235 208.5,242.5 Z"/></g><g><path style="opacity:1" fill="#a87f93" d="M 216.5,240.5 C 217.451,241.919 217.784,243.585 217.5,245.5C 214.813,245.664 212.146,245.497 209.5,245C 208.748,244.329 208.414,243.496 208.5,242.5C 210.913,244.051 213.579,244.717 216.5,244.5C 216.5,243.167 216.5,241.833 216.5,240.5 Z"/></g></svg>